<?xml version="1.0" encoding="UTF-8" standalone="no"?>
<!-- Created with Inkscape (http://www.inkscape.org/) -->

<svg
   xmlns:dc="http://purl.org/dc/elements/1.1/"
   xmlns:cc="http://creativecommons.org/ns#"
   xmlns:rdf="http://www.w3.org/1999/02/22-rdf-syntax-ns#"
   xmlns:svg="http://www.w3.org/2000/svg"
   xmlns="http://www.w3.org/2000/svg"
   xmlns:sodipodi="http://sodipodi.sourceforge.net/DTD/sodipodi-0.dtd"
   xmlns:inkscape="http://www.inkscape.org/namespaces/inkscape"
   width="210mm"
   height="297mm"
   viewBox="0 0 210 297"
   version="1.1"
   id="svg8"
   sodipodi:docname="iconRestaurant2.svg"
   inkscape:version="0.92.3 (2405546, 2018-03-11)">
  <defs
     id="defs2" />
  <sodipodi:namedview
     id="base"
     pagecolor="#ffffff"
     bordercolor="#666666"
     borderopacity="1.0"
     inkscape:pageopacity="0.0"
     inkscape:pageshadow="2"
     inkscape:zoom="11.62"
     inkscape:cx="171.27478"
     inkscape:cy="853.5998"
     inkscape:document-units="mm"
     inkscape:current-layer="layer1"
     showgrid="false"
     inkscape:window-width="1920"
     inkscape:window-height="1027"
     inkscape:window-x="-8"
     inkscape:window-y="2"
     inkscape:window-maximized="1" />
  <metadata
     id="metadata5">
    <rdf:RDF>
      <cc:Work
         rdf:about="">
        <dc:format>image/svg+xml</dc:format>
        <dc:type
           rdf:resource="http://purl.org/dc/dcmitype/StillImage" />
        <dc:title></dc:title>
      </cc:Work>
    </rdf:RDF>
  </metadata>
  <g
     inkscape:label="Ebene 1"
     inkscape:groupmode="layer"
     id="layer1">
    <g
       style="overflow:inherit"
       id="g3789"
       transform="matrix(0.53321286,0,0,0.53321286,54.089425,66.17165)">
      <path
         id="path3772"
         d="M 9.086,2.569 C 9.2442556,2.7432444 11.1865,0.5 11.373,0.689 11.5595,0.878 9.3571313,2.8380746 9.524,3.008 9.7005,3.1877331 11.6325,0.92999999 11.811,1.128 11.9895,1.326 9.7469239,3.2063402 9.932,3.414 10.121489,3.6266109 12.036922,1.3106474 12.188,1.503 12.339078,1.6953526 10.684,4.22 9.964,4.448 9.598,4.563 8.9436253,4.4063903 8.60319,4.6236109 8.1667331,4.9020996 7.7883665,5.5690226 7.175,6.045 6.8451448,5.7120226 6.6897331,5.5791222 6.423,5.264 6.9909096,4.7209682 7.695,4.13 7.832,3.854 8.045,3.424 8.0485867,2.8952399 8.1943439,2.4316109 8.3594435,1.9064569 10.812401,0.08394484 10.935,0.25 11.057599,0.41605516 8.9216308,2.3880244 9.086,2.569 Z"
         class="st1"
         inkscape:connector-curvature="0"
         style="fill:#ffffff" />
      <path
         id="path3774"
         d="M 0.876,2.663 C 0.53365597,2.1947976 -0.22454821,0.28045716 0.626,0.25 1.0863702,0.23351467 2.5202502,1.9056242 12.25,11.153 c 0,0.115 0,0.229 0,0.345 -0.145,0.356 -0.396,0.608 -0.752,0.752 -0.115,0 -0.229,0 -0.345,0 C 5.6638104,6.7637264 5.2374912,5.3226406 4.198,6.046 2.6891199,4.7306164 1.3418714,3.300143 0.876,2.663 Z"
         class="st1"
         inkscape:connector-curvature="0"
         style="fill:#ffffff" />
      <path
         id="path10"
         d="m 5.294,6.392 c 0.279,0.273 0.588,0.52 0.814,0.845 -1.595,1.665 -3.183,3.335 -4.762,5.013 -0.115,0 -0.229,0 -0.345,0 -0.355,-0.136 -0.597,-0.385 -0.752,-0.721 0,-0.136 0,-0.271 0,-0.406 1.712,-1.548 3.32,-3.199 5.045,-4.731 z"
         class="st1"
         inkscape:connector-curvature="0"
         style="fill:#ffffff" />
    </g>
  </g>
  <style
     id="style3713"
     type="text/css"><![CDATA[ 
               .st1{fill:#FFFFFF;}
          ]]></style>
  <style
     id="style3741"
     type="text/css"><![CDATA[ 
               .st1{fill:#FFFFFF;}
          ]]></style>
  <style
     id="style3770"
     type="text/css"><![CDATA[ 
               .st1{fill:#FFFFFF;}
          ]]></style>
</svg>
